<svg id="Layer_1" data-name="Layer 1" xmlns="http://www.w3.org/2000/svg" viewBox="0 0 1317.64 971.06">
    <defs>
        <style>
            .achiCls-1 {
                fill: #4aa8dd;
            }

            .achiCls-2 {
                fill: #e2e2e2;
            }

            .achiCls-3,
            .achiCls-6 {
                fill: #445772;
            }

            .achiCls-4 {
                fill: #b2b2b2;
            }

            .achiCls-5,
            .achiCls-8 {
                fill: #fff;
            }

            .achiCls-6,
            .achiCls-8 {
                font-size: 40px;
                font-family: HelvNeue Roman for IBM;
                weight: 600;
                letter-spacing: 2px;
            }
        </style>
    </defs>
    <title>ac hi</title>
    <rect class="achiCls-1" x="13.53" y="9.87" width="1296.16" height="951.7" rx="33.69" ry="33.69" />
    <g id="fan">
        <circle class="achiCls-2" cx="661.61" cy="443.95" r="308.98" />
        <circle class="achiCls-3" cx="661.61" cy="443.95" r="275.54" />
        <circle class="achiCls-2" cx="661.61" cy="443.95" r="256.82" />
        <path class="achiCls-1" d="M699.73,630h0a74,74,0,0,1-77.38-32,52.48,52.48,0,0,1-7-40l22.82-103L575.51,370a52.48,52.48,0,0,1-9.77-39.4A74,74,0,0,1,623.49,270h0a74,74,0,0,1,77.38,32,52.48,52.48,0,0,1,7,40L685.09,445,747.71,530a52.48,52.48,0,0,1,9.77,39.4A74,74,0,0,1,699.73,630Z" />
        <path class="achiCls-1" d="M481.6,488.12h0a74,74,0,0,1,32-77.38,52.48,52.48,0,0,1,40-7l103,22.82,84.94-62.62a52.48,52.48,0,0,1,39.4-9.77,74,74,0,0,1,60.65,57.75h0a74,74,0,0,1-32,77.38,52.48,52.48,0,0,1-40,7l-103-22.82L581.65,536.1a52.48,52.48,0,0,1-39.4,9.77A74,74,0,0,1,481.6,488.12Z" />
        <path class="achiCls-4" d="M661.57,493.79A49.91,49.91,0,0,1,613,454.38a49.69,49.69,0,0,1,38.32-58.91,49.65,49.65,0,0,1,58.91,38.32,49.69,49.69,0,0,1-38.32,58.91A50,50,0,0,1,661.57,493.79Z" />
        <path class="achiCls-2" d="M661.65,401.38a42.73,42.73,0,1,1-8.89.94,42.71,42.71,0,0,1,8.89-.94m0-14h0a57,57,0,0,0-11.79,1.24,56.7,56.7,0,0,0,11.7,112.16,57,57,0,0,0,11.79-1.24,56.7,56.7,0,0,0-11.7-112.16h0Z" />
    </g>
    <rect class="achiCls-5" x="493" y="841.48" width="350.24" height="53.52" rx="26.76" ry="26.76" />
    <rect class="achiCls-3" x="653" y="841.48" width="190.24" height="53.52" rx="26.76" ry="26.76" />
    <text class="achiCls-6" transform="translate(562 884)">LO</text>
    <text class="achiCls-8" transform="translate(728 884)">HI</text>
</svg>
