<svg id="Layer_1" data-name="Layer 1" xmlns="http://www.w3.org/2000/svg" viewBox="0 0 1317.64 971.06">
    <defs>
        <style>
            .acloCls-1 {
                fill: #4aa8dd;
            }

            .acloCls-2 {
                fill: #e2e2e2;
            }

            .acloCls-3,
            .acloCls-8 {
                fill: #445772;
            }

            .acloCls-4 {
                fill: #b2b2b2;
            }

            .acloCls-5,
            .acloCls-6 {
                fill: #fff;
            }

            .acloCls-6,
            .acloCls-8 {
                font-size: 40px;
                font-family: HelvNeue Roman for IBM;
                weight: 600;
                letter-spacing: 2px;
            }
        </style>
    </defs>
    <title>ac lo</title>
    <rect class="acloCls-1" x="11.35" y="9.4" width="1296.16" height="951.7" rx="33.69" ry="33.69" />
    <g id="fan">
        <circle class="acloCls-2" cx="659.43" cy="443.49" r="308.98" />
        <circle class="acloCls-3" cx="659.43" cy="443.49" r="275.54" />
        <circle class="acloCls-2" cx="659.43" cy="443.49" r="256.82" />
        <path class="acloCls-1" d="M697.55,629.54h0a74,74,0,0,1-77.38-32,52.48,52.48,0,0,1-7-40l22.82-103-62.62-84.94a52.48,52.48,0,0,1-9.77-39.4,74,74,0,0,1,57.75-60.65h0a74,74,0,0,1,77.38,32,52.48,52.48,0,0,1,7,40l-22.82,103,62.62,84.94a52.48,52.48,0,0,1,9.77,39.4A74,74,0,0,1,697.55,629.54Z" />
        <path class="acloCls-1" d="M479.42,487.65h0a74,74,0,0,1,32-77.38,52.48,52.48,0,0,1,40-7l103,22.82,84.94-62.62a52.48,52.48,0,0,1,39.4-9.77,74,74,0,0,1,60.65,57.75h0a74,74,0,0,1-32,77.38,52.48,52.48,0,0,1-40,7L664.4,473l-84.94,62.62a52.48,52.48,0,0,1-39.4,9.77A74,74,0,0,1,479.42,487.65Z" />
        <path class="acloCls-4" d="M659.39,493.32a49.91,49.91,0,0,1-48.57-39.41A49.69,49.69,0,0,1,649.13,395,49.69,49.69,0,1,1,659.39,493.32Z" />
        <path class="acloCls-2" d="M659.47,400.92a42.73,42.73,0,1,1-8.89.94,42.71,42.71,0,0,1,8.89-.94m0-14h0a57,57,0,0,0-11.79,1.24,56.7,56.7,0,0,0,11.7,112.16,56.7,56.7,0,0,0,.09-113.4h0Z" />
    </g>
    <rect class="acloCls-5" x="490.82" y="841.01" width="350.24" height="53.52" rx="26.76" ry="26.76" />
    <rect class="acloCls-3" x="490.82" y="841.01" width="190.24" height="53.52" rx="26.76" ry="26.76" />
    <text class="acloCls-6" transform="translate(562 884)">LO</text>
    <text class="acloCls-8" transform="translate(728 884)">HI</text>
</svg>
