<svg id="Layer_1" data-name="Layer 1" xmlns="http://www.w3.org/2000/svg" viewBox="0 0 1340 1007.91">
    <defs>
        <style>
            .cls-1{
                fill:#ede4d6;
            }
            .cls-2{
                fill:#67c5e5;
            }
            .cls-3{
                fill:#adc646;
            }
            .cls-4,.cls-6{
                fill:none;
            }
            .cls-4{
                stroke:#fff;
                stroke-miterlimit:10;
                stroke-width:5px;
            }
            .cls-5{
                fill:#bababa;
            }
            .cls-6{
                stroke:#d69732;stroke-linecap:round;stroke-linejoin:bevel;stroke-width:10px;
            }
        </style>
    </defs>
    <title>console map</title>
    <rect class="cls-1" x="17.65" y="21.83" width="1296.16" height="951.7" rx="33.69" ry="33.69"/>
    <path class="cls-2" d="M416.1,33.57s-31.5,25.5-37.5,33c0,0,3,6,0,15s-18,16.5-18,16.5-22.5,24-22.5,39,6,28.5,9,40.5,15,7.5,12,15-9,33-9,33l-12,55.5s-25.5,15-30,36-24,76.5-24,76.5l16.5,58.5,49.5,94.5,18,109.49s37.5,87,36,112.49-3,40.5-21,75-33,81.95-33,81.95l-18,50,24,5,36-116,18-27h21l21,34.5s21,48.4,21,53.45,12,55.05,12,55.05h105s-22.5-65-27-68-30-40.5-30-40.5-12-22.5-9-40.5-6-40.5-6-40.5-18-1.5-18-6-4.5-19.5-4.5-19.5-42-114-39-118.49,7.5-19.5-4.5-28.5-15-15-15-15,10.5-39,10.5-46.5-3-45.87-3-45.87L402.6,473l-4.5-21v-28.5c0-6,10.5-46.5,10.5-46.5s13.5-42,15-46.5,13.5-33,13.5-33,55.5-42,55.5-49.5,6-25.5,6-30-27-45-27-45c7.5-9,24-28.5,24-28.5s13.5-22.5,13.5-31.5-3-19.5-1.5-24l9-27,6-28.5H416.1Z"/>

    <polyline class="cls-4" points="15.86 705.96 346 661.04 380 745.13 380 787.14 306 973.96"/>
    <polyline class="cls-4" points="295.88 667.86 332.11 745.13 356.53 846.39"/>
    <line class="cls-4" x1="168.43" y1="685.2" x2="278.11" y2="980.53"/>
    <line class="cls-4" x1="94.74" y1="695.22" x2="192.61" y2="973.96"/>
    <polyline class="cls-4" points="353 682.96 306 691.96 181 725.96 111 751.96 -1 801.96"/>
    <polyline class="cls-4" points="359 698.96 315 709.96 200 771.96 138 821.96 0 921.96"/>
    <line class="cls-4" x1="369" y1="716.96" x2="325" y2="730.96"/>
    <path class="cls-4" d="M377,736c-3-1-44,14-44,14L218,815"/>
    <polyline class="cls-4" points="382 755.96 338 770.96 261 932.96"/>
    <polyline class="cls-4" points="380 773.96 349 808.96 288 968.96"/>
    <line class="cls-4" x1="230" y1="854.96" x2="165" y2="903.96"/>
    <polyline class="cls-4" points="138 690.96 114 526.96 103 229.96 93 32.96"/>
    <line class="cls-4" x1="112" y1="473.96" x2="224" y2="466.96"/>
    <line class="cls-4" x1="116" y1="552.96" x2="5" y2="560.96"/>
    <line class="cls-4" x1="122" y1="591.96" x2="-4" y2="604.96"/>
    <path class="cls-4" d="M111,426c-3,1-106,2-106,2"/>
    <line class="cls-4" x1="68" y1="427.96" x2="95" y2="90.96"/>
    <polyline class="cls-4" points="94 68.96 309 96.96 347 93.96 366 70.96 381 32.96"/>
    <line class="cls-4" x1="230" y1="86.96" x2="243" y2="34.96"/>
    <polyline class="cls-4" points="1325 142.96 611 289.96 449.1 347.05 431.1 432.55"/>
    <line class="cls-4" x1="1028" y1="447.96" x2="883" y2="15.96"/>
    <line class="cls-4" x1="936" y1="170.96" x2="1327" y2="80.96"/>
    <line class="cls-4" x1="917" y1="118.96" x2="1315" y2="28.96"/>
    <line class="cls-4" x1="904" y1="78.96" x2="1192" y2="11.96"/>
    <line class="cls-4" x1="980" y1="213.96" x2="912" y2="21.96"/>
    <polyline class="cls-4" points="976 11.96 1047 199.96 1053.57 351.55 1031.07 995.02"/>
    <line class="cls-4" x1="1081" y1="191.96" x2="1013" y2="13.96"/>
    <line class="cls-4" x1="1214" y1="166.96" x2="1132" y2="13.96"/>
    <polyline class="cls-4" points="992.07 342.56 1170.57 371.05 1344.56 671.04"/>
    <polyline class="cls-4" points="972.58 290.06 1184.06 321.56 1320.56 407.05"/>
    <polyline class="cls-4" points="965.08 261.56 1205.06 261.56 1335.56 258.56"/>
    <polyline class="cls-4" points="957.58 237.56 1205.06 204.56 1322.06 192.56"/>
    <polyline class="cls-4" points="1008.57 210.56 1017.57 230.06 1017.57 263.06 1010.07 401.05"/>
    <polyline class="cls-4" points="1115.07 188.06 1128.57 215.06 1133.07 260.06 1134.57 312.56"/>
    <line class="cls-4" x1="725.09" y1="266.06" x2="885.58" y2="26.07"/>
    <polyline class="cls-4" points="809.08 986.02 783.59 917.03 705.59 684.54 642.59 597.54 690.59 513.55 771.59 258.56"/>
    <polyline class="cls-4" points="764.09 285.56 843.58 570.54 674.09 644.04"/>
    <line class="cls-4" x1="642.59" y1="597.54" x2="824.08" y2="510.55"/>
    <polyline class="cls-4" points="792.58 527.04 815.08 582.54 987.57 981.52"/>
    <line class="cls-4" x1="759.59" y1="542.04" x2="780.58" y2="597.54"/>
    <line class="cls-4" x1="729.59" y1="558.54" x2="753.59" y2="609.54"/>
    <polyline class="cls-4" points="701.09 570.54 725.09 623.04 888.58 972.52"/>
    <line class="cls-4" x1="843.58" y1="570.54" x2="1035.57" y2="819.53"/>
    <line class="cls-4" x1="768.59" y1="603.54" x2="933.58" y2="986.02"/>
    <line class="cls-4" x1="701.09" y1="632.04" x2="864.58" y2="992.02"/>
    <line class="cls-4" x1="705.59" y1="684.54" x2="878.08" y2="617.04"/>
    <path class="cls-4" d="M716.09,732.54c4.5,0,97.5-24,97.5-24l90-58.5"/>
    <polyline class="cls-4" points="737.09 797.03 950.08 711.54 1046.07 579.54 1227.56 470.05"/>
    <line class="cls-4" x1="753.59" y1="833.03" x2="899.08" y2="785.03"/>
    <line class="cls-4" x1="762.59" y1="864.53" x2="912.58" y2="812.03"/>
    <line class="cls-4" x1="771.59" y1="894.53" x2="924.58" y2="840.53"/>
    <line class="cls-4" x1="788.08" y1="936.52" x2="945.58" y2="891.53"/>

    <path class="cls-3" d="M468.64,630.54S469.81,645.47,464,651l44,126,15,6,13,37-5,28,14,30,32.36,34L598,968H746l9-42.48L660.89,677,618,606.33Z"/>
    <polygon class="cls-3" points="810.73 387.96 975.18 363.96 941.08 245.96 786 273.96 810.73 387.96"/>
    <polygon class="cls-3" points="346 197.96 328 271.96 304 300.13 168.43 300.13 198 249.04 346 197.96"/>
    <polygon class="cls-3" points="1098.59 684.54 1166 831.96 1294.88 787.14 1229.24 658.3 1098.59 684.54"/>

    <rect class="cls-5" x="299.45" y="528.84" width="29.53" height="94.41" transform="translate(-89.91 59.09) rotate(-9.41)"/>
    <rect class="cls-5" x="270.34" y="555.29" width="23.24" height="74.31" transform="translate(-93.02 54.04) rotate(-9.41)"/>
    <polygon class="cls-5" points="624 260.96 672 264.96 684 214.96 639 209.96 624 260.96"/>
    <polygon class="cls-5" points="803 659.96 817 693.96 847 675.96 832 643.96 803 659.96"/>
    <polygon class="cls-5" points="1080 541.29 1214 465.96 1188 425.96 1060 493.96 1080 541.29"/>

    <polyline class="cls-6" points="-1.35 684.54 497.1 615.54 614.09 594.54 678.59 491.18 623.09 333.56 678.59 293.96 705.59 233.06 848.08 8.07"/>
    <polyline class="cls-6" points="678.59 491.18 960.58 447.55 1203.56 980.53"/>
    <polyline class="cls-6" points="660.89 440.92 941.08 396.55 960.58 447.55"/>
    <polyline class="cls-6" points="997.84 529.29 678.59 673.96 768 925.48 754 1000.53"/>
    <path class="cls-6" d="M862.87,462.67L874,511.18V562l18,32,16,44L920,714S936.15,738,941.08,744,974,818,974,818v50l10,66,13.84,46.57"/>
    <polyline class="cls-6" points="548.43 606.33 536 422.05 558 323.96 642 21.83"/>
    <polyline class="cls-6" points="590.09 598.85 580 381.96 564.62 300.13"/>
    <polyline class="cls-6" points="1048 33.57 1222 225.96 1168 369.96 975.18 479.59"/>
    <line class="cls-6" x1="168.43" y1="661.04" x2="114" y2="33.57"/>
</svg>