<?xml version="1.0" encoding="utf-8"?>
<!-- Generator: Adobe Illustrator 19.2.1, SVG Export Plug-In . SVG Version: 6.00 Build 0)  -->
<svg version="1.1" id="sky" xmlns="http://www.w3.org/2000/svg" xmlns:xlink="http://www.w3.org/1999/xlink" x="0px" y="0px" viewBox="0 0 1024 704" style="enable-background:new 0 0 1024 704;" xml:space="preserve">
    <style type="text/css">
    .st0 {
        opacity: 0.63;
    }
    
    .st1 {
        fill: #3A3A3A;
    }
    
    .st2 {
        fill: #1C1C1C;
    }
    
    .st3 {
        fill: #424242;
    }
    
    .st4 {
        fill: #636363;
    }
    
    .st5 {
        fill: #9E9A98;
    }
    
    .st6 {
        fill: #BCBCBC;
    }
    
    .st7 {
        fill: #DBDBDB;
    }
    
    .st8 {
        fill: #BFBFBF;
    }
    
    .st9 {
        fill: none;
        stroke: #EAEAEA;
        stroke-width: 1.8227;
        stroke-miterlimit: 10;
    }
    
    .st10 {
        fill: none;
        stroke: #1C1C1C;
        stroke-width: 7.2907;
        stroke-miterlimit: 10;
    }
    
    .st11 {
        fill: #EAEAEA;
    }
    
    .st12 {
        fill: none;
        stroke: #BFBFBF;
        stroke-width: 7.2907;
        stroke-miterlimit: 10;
    }
    
    .st13 {
        fill: #F4F4F4;
    }
    
    .st14 {
        opacity: 0.3;
        fill: none;
        stroke: #000000;
        stroke-width: 3.0378;
        stroke-miterlimit: 10;
        enable-background: new;
    }
    
    .st15 {
        fill: none;
        stroke: #5E5E5E;
        stroke-width: 0.6075;
        stroke-miterlimit: 10;
    }
    
    .st16 {
        fill: none;
        stroke: #BFBFBF;
        stroke-width: 1.6202;
        stroke-miterlimit: 10;
    }
    
    .st17 {
        fill: none;
        stroke: #686868;
        stroke-width: 0.2025;
        stroke-miterlimit: 10;
    }
    
    .st18 {
        fill: none;
        stroke: #BFBFBF;
        stroke-width: 3.0378;
        stroke-miterlimit: 10;
    }
    
    .st19 {
        fill: #B5B5B5;
        stroke: #1C1C1C;
        stroke-width: 13.5687;
        stroke-miterlimit: 10;
    }
    
    .st20 {
        opacity: 0.3;
        enable-background: new;
    }
    
    .st21 {
        fill: #E0E0E0;
    }
    
    .st22 {
        fill: #B5B5B5;
    }
    
    .st23 {
        fill: #6B6B6B;
    }
    
    .st24 {
        fill: #666666;
    }
    
    .st25 {
        font-family: 'HelveticaNeue-Bold';
    }
    
    .st26 {
        font-size: 4.8604px;
    }
    
    .st27 {
        fill: #8C8C8C;
    }
    
    .st28 {
        fill: #A5A5A5;
    }
    
    .st29 {
        fill: #C8CDD1;
    }
    
    .st30 {
        fill: #FFFFFF;
    }
    
    .st31 {
        fill: #E7776A;
    }
    
    .st32 {
        fill: #2C3D4F;
    }
    
    .st33 {
        fill: #E77366;
    }
    
    .st34 {
        fill: none;
        stroke: #E77366;
        stroke-width: 1.8227;
        stroke-miterlimit: 10;
    }
    
    .st35 {
        opacity: 0.35;
        fill: #1C1C1C;
        enable-background: new;
    }
    
    .st36 {
        fill: #6D6B6A;
    }
    
    .st37 {
        fill: #969696;
    }
    
    .st38 {
        fill: #595959;
    }
    
    .st39 {
        fill: #575354;
    }
    
    .st40 {
        fill: #5B5B5B;
    }
    
    .st41 {
        fill: #E8E8E8;
    }
    
    .st42 {
        fill: #CCCCCC;
    }
    </style>
    <g id="headlights" style="display:none">
        <image style="overflow:visible;enable-background:new    ;" width="1643" height="366" xlink:href="images/3B33F20327EE6DA0.png" transform="matrix(0.246 0 0 0.246 286.3539 248.3418)">
        </image>
        <g class="st0">
            <image style="overflow:visible;enable-background:new    ;" width="971" height="971" xlink:href="images/3B33F20327EE6DA3.png" transform="matrix(0.2465 0 0 0.2465 263.5734 270.2447)">
            </image>
        </g>
        <g class="st0">
            <image style="overflow:visible;enable-background:new    ;" width="974" height="971" xlink:href="images/3B33F20327EE6DA6.png" transform="matrix(0.2462 0 0 0.2462 505.7728 270.3677)">
            </image>
        </g>
    </g>
    <g id="right_wiper">
        <polygon class="st1" points="704.6,333.2 702,342.7 376.3,308.5 375.7,298.6 	" />
        <path class="st1" d="M628.7,326.4l-0.2,2.4c0,0-41.9-9.4-96.1-15.1s-97.1-5.2-97.1-5.2l0.2-2.4c0,0,42.8-6.1,97.7-0.3
		C588,311.5,628.7,326.4,628.7,326.4z" />
    </g>
    <g id="left_wiper">
        <polygon class="st1" points="418.6,330.2 416,339.7 90.3,305.5 89.7,295.6 	" />
        <path class="st1" d="M342.7,323.4l-0.2,2.4c0,0-41.9-9.4-96.1-15.1s-97.1-5.2-97.1-5.2l0.2-2.4c0,0,42.8-6.1,97.7-0.3
		C302,308.5,342.7,323.4,342.7,323.4z" />
    </g>
    <title>dashboard</title>
    <polygon class="st2" points="-3.2,578.4 1029.7,578.4 1026.6,760.7 -6.3,760.7 " />
    <polygon class="st3" points="540.9,522.2 843.2,522.2 840.1,797.1 537.8,797.1 " />
    <polygon class="st3" points="899.5,381 976.4,421.3 1029.7,423.2 1029.7,543 541.9,542.6 -4.4,542.6 -4.4,382.2 68.5,379.5 
	168.3,336.6 292.8,301.8 417.1,335.8 516.8,380.1 552.4,382.2 " />
    <path class="st4" d="M1030.9,421.2L973,420l-74.8-39.9l-377.3-1l-145-61.4l-73.5-11.5l-78.2,8.8L72.6,379.4l-75.9,2.7v-48.3
	l303-32.8L891,333.9c3.4,0,7,0.3,10.4,0.9l129.5,19.3V421.2L1030.9,421.2L1030.9,421.2z" />
    <path class="st3" d="M1030.9,420.8v-39l-129.4-28.2c-3-0.6-7-1.6-10.5-1.6l-530.9-42.4l-74.9-5.4l-80.7,17.3L-3.2,368.4v13.9l74-2.1
	l121.7-51.7l96.4-19.5l95,11.2l134,60h380.4l74.8,39.9L1030.9,420.8z" />
    <path class="st2" d="M1030.1,431.1h-38.6c-10.6,0-24.1-3-33.1-8.6l-39.6-28.3c-9-5.7-16.4-7.4-27-7.4l-361.5-0.3
	c-9.2,0-18.4-1.8-26.9-5.4L391,344.7c-1.1-0.6-2.2-1.1-3.4-1.6c-65.1-26.4-138.5-23.7-201.5,7.6l-98.5,31.2
	c-13.6,3.9-20.4,3.9-31.2,3.9h-57v-2.3h57.1c10.8,0,21.5-2.5,31.3-7.3l98.5-46.2c63-31.2,136.4-34,201.5-7.6c1.2,0.5,2.3,1,3.4,1.6
	l112.4,54.1c8.5,3.5,17.7,5.4,26.9,5.4h361.4c10.6,0,21,3,30,8.6l39.7,24.8c9,5.7,19.4,8.6,30,8.6h38.6L1030.1,431.1L1030.1,431.1
	L1030.1,431.1z" />
    <path class="st5" d="M553.6,679.4h-30.4c0,0-19.1-99.2-91.3-96.2H-9.8V542H475l78.5-0.4L553.6,679.4L553.6,679.4L553.6,679.4z" />
    <path class="st6" d="M553.6,679.4h-30.4c0,0-19.1-113.2-91.3-110.2H-9.8V542H475l78.5-0.4L553.6,679.4L553.6,679.4L553.6,679.4z" />
    <polygon class="st7" points="501.8,542.1 553.6,541.7 550.5,768.7 533.1,768.7 " />
    <path class="st5" d="M830,679.4h30.4c0,0,19.1-55.5,91.3-52.4h78v-85H908.5l-78.5-0.4V679.4L830,679.4L830,679.4z" />
    <path class="st6" d="M830,679.4h30.4c0,0,19.1-71.9,91.3-68.9h78V542H908.5l-78.5-0.4V679.4L830,679.4L830,679.4z" />
    <polygon class="st7" points="881.8,542.1 830,541.7 826.9,768.7 844.1,768.7 " />
    <path class="st8" d="M1030.1,424.8h-38.6c-10.6,0-24.1-3-33.1-8.6l-39.6-24.7c-9-5.7-16.4-8.6-27-8.6H530.3
	c-9.2,0-18.4-1.8-26.9-5.4L391,328.3c-1.1-0.6-2.2-1.1-3.4-1.6c-65.1-26.4-138.5-23.7-201.5,7.6l-98.5,41.4
	c-9.7,4.8-20.3,7.3-31.2,7.3h-57v-5.8h57.1c10.8,0,21.5-2.5,31.3-7.3l98.5-46.2c63-31.2,136.4-34,201.5-7.6c1.2,0.5,2.3,1,3.4,1.6
	l112.4,54.1c8.5,3.5,17.7,5.4,26.9,5.4h361.4c10.6,0,21,3,30,8.6l39.7,24.8c9,5.7,19.4,8.6,30,8.6h38.6L1030.1,424.8L1030.1,424.8
	L1030.1,424.8z" />
    <path class="st9" d="M-0.6,377.2h57.1c10.8,0,21.5-2.5,31.3-7.3l98.5-46.2c63-31.2,136.4-34,201.5-7.6c1.2,0.5,2.3,1,3.4,1.6
	l112.4,54.1c8.5,3.5,17.7,5.4,26.9,5.4h361.4c10.6,0,21,3,30,8.6l39.7,24.8c9,5.7,19.4,8.6,30,8.6h38.6" />
    <path class="st10" d="M568,395.4h248c6.2,0,11.1,5,11.1,11.1v175.9c0,6.2-5,11.1-11.1,11.1H568c-6.2,0-11.1-5-11.1-11.1V406.5
	C556.9,400.3,561.9,395.4,568,395.4z" />
    <polygon class="st11" points="557.2,399.9 565.7,393.1 818.3,393.1 825.8,400.8 825.8,581 819.7,589.5 565.5,589.5 557.2,579.8 " />
    <g id="panel">
    </g>
    <path class="st12" d="M568,391.3h248c6.2,0,11.1,5,11.1,11.1v175.9c0,6.2-5,11.1-11.1,11.1H568c-6.2,0-11.1-5-11.1-11.1V402.5
	C556.9,396.3,561.9,391.3,568,391.3z" />
    <path class="st13" d="M823.6,578.4c0,6.2-1.5,9.7-7.6,9.7H568c-6.2,0-7.7-3.5-7.7-9.7c0,0,1,7.5,7.6,7.5l247.8,0.1
	C822.9,586,823.6,578.4,823.6,578.4z" />
    <path class="st13" d="M830.6,400.8c0-7.2-7.6-13.1-14.7-13.1H568c-7.2,0-14.7,6-14.7,13.1c0,0,0.3-3.1,6.3-7.1
	c2.5-1.6,5.5-2.4,8.5-2.4c0,0,238.8-0.2,247.9,0C825.2,391.5,830.6,400.8,830.6,400.8z" />
    <path class="st14" d="M843.1,392.6h57.2c3.7,0,6.8,3,6.8,6.8v42.1c0,3.7-3,6.8-6.8,6.8h-57.2c-3.7,0-6.8-3-6.8-6.8v-42.1
	C836.3,395.6,839.3,392.6,843.1,392.6z" />
    <path class="st2" d="M843.1,390.5h57.2c3.7,0,6.8,3,6.8,6.8v42.1c0,3.7-3,6.8-6.8,6.8h-57.2c-3.7,0-6.8-3-6.8-6.8v-42.1
	C836.3,393.5,839.3,390.5,843.1,390.5z" />
    <line class="st15" x1="853.5" y1="391.6" x2="853.5" y2="444.8" />
    <line class="st15" x1="870.8" y1="391.6" x2="870.8" y2="444.8" />
    <line class="st15" x1="888.8" y1="391.6" x2="888.8" y2="444.8" />
    <line class="st16" x1="837.8" y1="400.8" x2="905.3" y2="400.8" />
    <line class="st16" x1="837.8" y1="412.2" x2="905.3" y2="412.2" />
    <line class="st16" x1="837.8" y1="423.6" x2="905.3" y2="423.6" />
    <line class="st16" x1="837.8" y1="434.9" x2="905.3" y2="434.9" />
    <path class="st8" d="M863.5,415.3H878c1.3,0,2.4,1.1,2.4,2.4l0,0c0,1.3-1.1,2.4-2.4,2.4h-14.5c-1.3,0-2.4-1.1-2.4-2.4l0,0
	C861.1,416.4,862.2,415.3,863.5,415.3z" />
    <line class="st17" x1="869.1" y1="416.9" x2="869.1" y2="418.7" />
    <line class="st17" x1="870.8" y1="416.9" x2="870.8" y2="418.7" />
    <line class="st17" x1="872.4" y1="416.9" x2="872.4" y2="418.7" />
    <path class="st18" d="M843.1,390.5h57.2c3.7,0,6.8,3,6.8,6.8v42.1c0,3.7-3,6.8-6.8,6.8h-57.2c-3.7,0-6.8-3-6.8-6.8v-42.1
	C836.3,393.5,839.3,390.5,843.1,390.5z" />
    <path class="st14" d="M485.9,392.6h57.2c3.7,0,6.8,3,6.8,6.8v42.1c0,3.7-3,6.8-6.8,6.8h-57.2c-3.7,0-6.8-3-6.8-6.8v-42.1
	C479.2,395.6,482.3,392.6,485.9,392.6z" />
    <path class="st2" d="M485.9,390.5h57.2c3.7,0,6.8,3,6.8,6.8v42.1c0,3.7-3,6.8-6.8,6.8h-57.2c-3.7,0-6.8-3-6.8-6.8v-42.1
	C479.2,393.5,482.3,390.5,485.9,390.5z" />
    <line class="st15" x1="496.3" y1="391.6" x2="496.3" y2="444.8" />
    <line class="st15" x1="513.6" y1="391.6" x2="513.6" y2="444.8" />
    <line class="st15" x1="531.6" y1="391.6" x2="531.6" y2="444.8" />
    <line class="st16" x1="480.6" y1="400.8" x2="548.1" y2="400.8" />
    <line class="st16" x1="480.6" y1="412.2" x2="548.1" y2="412.2" />
    <line class="st16" x1="480.6" y1="423.6" x2="548.1" y2="423.6" />
    <line class="st16" x1="480.6" y1="434.9" x2="548.1" y2="434.9" />
    <path class="st8" d="M506.4,415.3h14.5c1.3,0,2.4,1.1,2.4,2.4l0,0c0,1.3-1.1,2.4-2.4,2.4h-14.5c-1.3,0-2.4-1.1-2.4-2.4l0,0
	C504,416.4,505.1,415.3,506.4,415.3z" />
    <line class="st17" x1="512" y1="416.9" x2="512" y2="418.7" />
    <line class="st17" x1="513.6" y1="416.9" x2="513.6" y2="418.7" />
    <line class="st17" x1="515.2" y1="416.9" x2="515.2" y2="418.7" />
    <path class="st18" d="M485.9,390.5h57.2c3.7,0,6.8,3,6.8,6.8v42.1c0,3.7-3,6.8-6.8,6.8h-57.2c-3.7,0-6.8-3-6.8-6.8v-42.1
	C479.2,393.5,482.3,390.5,485.9,390.5z" />
    <path class="st14" d="M9.2,392.6h57.2c3.7,0,6.8,3,6.8,6.8v42.1c0,3.7-3,6.8-6.8,6.8H9.2c-3.7,0-6.8-3-6.8-6.8v-42.1
	C2.4,395.6,5.4,392.6,9.2,392.6z" />
    <path class="st2" d="M9.2,390.5h57.2c3.7,0,6.8,3,6.8,6.8v42.1c0,3.7-3,6.8-6.8,6.8H9.2c-3.7,0-6.8-3-6.8-6.8v-42.1
	C2.4,393.5,5.4,390.5,9.2,390.5z" />
    <line class="st15" x1="19.6" y1="391.6" x2="19.6" y2="444.8" />
    <line class="st15" x1="36.9" y1="391.6" x2="36.9" y2="444.8" />
    <line class="st15" x1="54.9" y1="391.6" x2="54.9" y2="444.8" />
    <line class="st16" x1="3.9" y1="400.8" x2="71.4" y2="400.8" />
    <line class="st16" x1="3.9" y1="412.2" x2="71.4" y2="412.2" />
    <line class="st16" x1="3.9" y1="423.6" x2="71.4" y2="423.6" />
    <line class="st16" x1="3.9" y1="434.9" x2="71.4" y2="434.9" />
    <path class="st8" d="M29.7,415.3h14.4c1.3,0,2.4,1.1,2.4,2.4l0,0c0,1.3-1.1,2.4-2.4,2.4H29.7c-1.3,0-2.4-1.1-2.4-2.4l0,0
	C27.2,416.4,28.3,415.3,29.7,415.3z" />
    <line class="st17" x1="35.3" y1="416.9" x2="35.3" y2="418.7" />
    <line class="st17" x1="36.9" y1="416.9" x2="36.9" y2="418.7" />
    <line class="st17" x1="38.5" y1="416.9" x2="38.5" y2="418.7" />
    <path class="st18" d="M9.2,390.5h57.2c3.7,0,6.8,3,6.8,6.8v42.1c0,3.7-3,6.8-6.8,6.8H9.2c-3.7,0-6.8-3-6.8-6.8v-42.1
	C2.4,393.5,5.4,390.5,9.2,390.5z" />
    <path class="st2" d="M159.9,350.8L209,329c0,0,78.5-35.9,172,0l47.5,21c4.9,2.1,9,5.6,12,9.9c15,21.7,50.6,87.5-66.3,87.5h-205
	C71.2,447.3,111.5,374.1,159.9,350.8z" />
    <path class="st19" d="M573.3,608.2h237.3c4.2,0,7.7,3.4,7.7,7.7v2c0,4.2-3.4,7.7-7.7,7.7H573.3c-4.2,0-7.7-3.4-7.7-7.7v-2
	C565.6,611.7,569.1,608.2,573.3,608.2z" />
    <path class="st20" d="M632.3,646.8c23.9,0,40.1,19.5,40.1,43.4s-19.3,43.2-43.2,43.2S586,714,586,690.1S608.4,646.8,632.3,646.8z" />
    <path class="st21" d="M632.3,638.7c23.9,0,43.2,19.3,43.2,43.2s-22.4,43.4-46.3,43.4s-40.1-19.5-40.1-43.4S608.4,638.7,632.3,638.7z
	" />
    <path class="st22" d="M632.3,641.8c22.1,0,40.1,17.9,40.1,40.1c0,22.1-21,40.3-43.1,40.3s-37-18.1-37-40.3
	C592.2,659.7,610.2,641.8,632.3,641.8z" />
    <path class="st23" d="M632.3,668.7c7.3,0,13.2,5.9,13.2,13.1s-9,13.4-16.2,13.4s-10.1-6.1-10.1-13.4S625,668.7,632.3,668.7z" />
    <path class="st24" d="M632.3,645L632.3,645c0.6,0,1,0.4,1,1v3.5c0,0.6-0.4,1-1,1l0,0c-0.6,0-1-0.4-1-1V646
	C631.3,645.5,631.7,645,632.3,645z" />
    <path class="st24" d="M622.7,646.3L622.7,646.3c0.5-0.1,1,0.2,1.2,0.7l0,0l0.2,0.7c0.1,0.5-0.2,1-0.7,1.2l0,0
	c-0.5,0.1-1-0.2-1.2-0.7l0,0l-0.2-0.7C621.9,647.1,622.2,646.4,622.7,646.3L622.7,646.3z" />
    <path class="st24" d="M606.3,655.9L606.3,655.9c0.4-0.4,1-0.4,1.4,0l0.5,0.5c0.4,0.4,0.4,1,0,1.4l0,0c-0.4,0.4-1,0.4-1.4,0l-0.5-0.5
	C605.9,656.9,605.9,656.2,606.3,655.9z" />
    <path class="st24" d="M596.7,672.3L596.7,672.3c0.2-0.5,0.7-0.8,1.2-0.7l0,0l0.7,0.2c0.5,0.2,0.8,0.7,0.7,1.2l0,0
	c-0.2,0.5-0.7,0.8-1.2,0.7l0,0l-0.7-0.2C596.9,673.4,596.6,672.9,596.7,672.3L596.7,672.3z" />
    <path class="st24" d="M667.8,672.3L667.8,672.3c0.1,0.5-0.2,1-0.7,1.2l0,0l-0.7,0.2c-0.5,0.1-1-0.2-1.2-0.7l0,0
	c-0.1-0.5,0.2-1,0.7-1.2l0,0l0.7-0.2C667.1,671.5,667.6,671.8,667.8,672.3L667.8,672.3z" />
    <path class="st24" d="M658.3,655.9L658.3,655.9c0.4,0.4,0.4,1,0,1.4l-0.5,0.5c-0.4,0.4-1,0.4-1.4,0l0,0c-0.4-0.4-0.4-1,0-1.4
	l0.5-0.5C657.3,655.5,657.9,655.5,658.3,655.9z" />
    <path class="st24" d="M641.8,646.3L641.8,646.3c0.5,0.2,0.8,0.7,0.7,1.2l0,0l-0.2,0.7c-0.2,0.5-0.7,0.8-1.2,0.7l0,0
	c-0.5-0.2-0.8-0.7-0.7-1.2l0,0l0.2-0.7C640.7,646.6,641.2,646.2,641.8,646.3L641.8,646.3z" />
    <path class="st24" d="M613.9,650L613.9,650c0.5-0.3,1.1-0.1,1.3,0.4l0,0l1.7,3c0.3,0.5,0.1,1.1-0.4,1.3l0,0
	c-0.5,0.3-1.1,0.1-1.3-0.4l0,0l-1.7-3C613.3,650.9,613.4,650.3,613.9,650L613.9,650z" />
    <path class="st24" d="M600.4,663.4L600.4,663.4c0.3-0.5,0.9-0.6,1.3-0.4l0,0l3,1.7c0.5,0.3,0.6,0.9,0.4,1.3l0,0
	c-0.3,0.5-0.9,0.6-1.3,0.4l0,0l-3-1.7C600.3,664.6,600.1,663.9,600.4,663.4L600.4,663.4z" />
    <path class="st24" d="M595.5,681.9L595.5,681.9c0-0.6,0.4-1,1-1h3.5c0.6,0,1,0.4,1,1l0,0c0,0.6-0.4,1-1,1h-3.5
	C596,682.9,595.5,682.4,595.5,681.9z" />
    <path class="st24" d="M669,681.9L669,681.9c0,0.6-0.4,1-1,1h-3.5c-0.6,0-1-0.4-1-1l0,0c0-0.6,0.4-1,1-1h3.5
	C668.6,680.8,669,681.2,669,681.9z" />
    <path class="st24" d="M664,663.4L664,663.4c0.3,0.5,0.1,1.1-0.4,1.3l0,0l-3,1.7c-0.5,0.3-1.1,0.1-1.3-0.4l0,0
	c-0.3-0.5-0.1-1.1,0.4-1.3l0,0l3-1.7C663.2,662.8,663.8,663,664,663.4L664,663.4z" />
    <path class="st24" d="M650.6,650L650.6,650c0.5,0.3,0.6,0.9,0.4,1.3l0,0l-1.7,3c-0.3,0.5-0.9,0.6-1.3,0.4l0,0
	c-0.5-0.3-0.6-0.9-0.4-1.3l0,0l1.7-3C649.6,649.9,650.2,649.8,650.6,650L650.6,650z" />
    <text transform="matrix(1 0 0 1 602.4131 683.4385)" class="st24 st25 st26">LO</text>
    <text transform="matrix(1 0 0 1 604.2539 700.918)" class="st24 st25 st26">OFF</text>
    <text transform="matrix(1 0 0 1 627.7822 655.8438)" class="st24 st25 st26">MED</text>
    <text transform="matrix(1 0 0 1 657.4512 683.4385)" class="st24 st25 st26">HI</text>
    <path class="st27" d="M619.4,687.7l18.5-18.5c1.5-1.5,3.8-1.5,5.4,0l1.8,1.8c1.5,1.5,1.5,3.8,0,5.4l-21.6,18.7
	c-1.5,1.5-3.8,1.5-5.4,0l-1.8-1.8C614.9,691.9,618,689.2,619.4,687.7z" />
    <path class="st20" d="M750.7,646.8c23.9,0,40.1,19.5,40.1,43.4s-19.3,43.2-43.2,43.2s-43.2-19.3-43.2-43.2S726.9,646.8,750.7,646.8z
	" />
    <path class="st21" d="M750.7,638.7c23.9,0,43.2,19.3,43.2,43.2s-22.4,43.4-46.3,43.4s-40.1-19.5-40.1-43.4S726.9,638.7,750.7,638.7z
	" />
    <path class="st22" d="M750.7,641.8c22.1,0,40.1,17.9,40.1,40.1c0,22.1-21,40.3-43.1,40.3s-37-18.1-37-40.3
	C710.7,659.7,728.6,641.8,750.7,641.8z" />
    <path class="st23" d="M750.7,668.7c7.3,0,13.2,5.9,13.2,13.1s-9,13.4-16.2,13.4s-10.1-6.1-10.1-13.4S743.5,668.7,750.7,668.7z" />
    <path class="st24" d="M750.7,645L750.7,645c0.6,0,1,0.4,1,1v3.5c0,0.6-0.4,1-1,1l0,0c-0.6,0-1-0.4-1-1V646
	C749.7,645.5,750.1,645,750.7,645z" />
    <path class="st24" d="M741.2,646.3L741.2,646.3c0.5-0.1,1,0.2,1.2,0.7l0,0l0.2,0.7c0.1,0.5-0.2,1-0.7,1.2l0,0
	c-0.5,0.1-1-0.2-1.2-0.7l0,0l-0.2-0.7C740.4,647.1,740.7,646.4,741.2,646.3L741.2,646.3z" />
    <path class="st24" d="M724.7,655.9L724.7,655.9c0.4-0.4,1-0.4,1.4,0l0.5,0.5c0.4,0.4,0.4,1,0,1.4l0,0c-0.4,0.4-1,0.4-1.4,0l-0.5-0.5
	C724.3,656.9,724.3,656.2,724.7,655.9z" />
    <path class="st24" d="M715.2,672.3L715.2,672.3c0.2-0.5,0.7-0.8,1.2-0.7l0,0l0.7,0.2c0.5,0.2,0.8,0.7,0.7,1.2l0,0
	c-0.2,0.5-0.7,0.8-1.2,0.7l0,0l-0.7-0.2C715.4,673.4,715.1,672.9,715.2,672.3L715.2,672.3z" />
    <path class="st24" d="M786.2,672.3L786.2,672.3c0.1,0.5-0.2,1-0.7,1.2l0,0l-0.7,0.2c-0.5,0.1-1-0.2-1.2-0.7l0,0
	c-0.1-0.5,0.2-1,0.7-1.2l0,0l0.7-0.2C785.5,671.5,786,671.8,786.2,672.3L786.2,672.3z" />
    <path class="st24" d="M776.7,655.9L776.7,655.9c0.4,0.4,0.4,1,0,1.4l-0.6,0.6c-0.4,0.4-1,0.4-1.4,0l0,0c-0.4-0.4-0.4-1,0-1.4
	l0.5-0.5C775.6,655.5,776.3,655.5,776.7,655.9C776.7,655.8,776.7,655.9,776.7,655.9z" />
    <path class="st24" d="M760.2,646.3L760.2,646.3c0.5,0.2,0.8,0.7,0.7,1.2l0,0l-0.2,0.7c-0.2,0.5-0.7,0.8-1.2,0.7l0,0
	c-0.5-0.2-0.8-0.7-0.7-1.2l0,0l0.2-0.7C759.1,646.6,759.7,646.2,760.2,646.3L760.2,646.3z" />
    <path class="st24" d="M732.3,650L732.3,650c0.5-0.3,1.1-0.1,1.3,0.4l0,0l1.7,3c0.3,0.5,0.1,1.1-0.4,1.3l0,0
	c-0.5,0.3-1.1,0.1-1.3-0.4l0,0l-1.7-3C731.7,650.9,731.9,650.3,732.3,650L732.3,650z" />
    <path class="st24" d="M718.9,663.4L718.9,663.4c0.3-0.5,0.9-0.6,1.3-0.4l0,0l3,1.7c0.5,0.3,0.6,0.9,0.4,1.3l0,0
	c-0.3,0.5-0.9,0.6-1.3,0.4l0,0l-3-1.7C718.8,664.6,718.7,663.9,718.9,663.4L718.9,663.4z" />
    <path class="st24" d="M713.9,681.9L713.9,681.9c0-0.6,0.4-1,1-1h3.5c0.6,0,1,0.4,1,1l0,0c0,0.6-0.4,1-1,1h-3.5
	C714.4,682.9,713.9,682.4,713.9,681.9z" />
    <path class="st24" d="M787.4,681.9L787.4,681.9c0,0.6-0.4,1-1,1h-3.5c-0.6,0-1-0.4-1-1l0,0c0-0.6,0.4-1,1-1h3.5
	C787,680.8,787.4,681.2,787.4,681.9L787.4,681.9L787.4,681.9z" />
    <path class="st24" d="M782.6,663.4L782.6,663.4c0.3,0.5,0.1,1.1-0.4,1.3l0,0l-3,1.7c-0.5,0.3-1.1,0.1-1.3-0.4l0,0
	c-0.3-0.5-0.1-1.1,0.4-1.3l0,0l3-1.7C781.7,662.8,782.3,663,782.6,663.4L782.6,663.4z" />
    <path class="st24" d="M769.1,650L769.1,650c0.5,0.3,0.6,0.9,0.4,1.3l0,0l-1.7,3c-0.3,0.5-0.9,0.6-1.3,0.4l0,0
	c-0.5-0.3-0.6-0.9-0.4-1.3l0,0l1.7-3C768,649.9,768.6,649.8,769.1,650L769.1,650z" />
    <text transform="matrix(1 0 0 1 720.8945 683.4385)" class="st24 st25 st26">LO</text>
    <text transform="matrix(1 0 0 1 722.7354 700.918)" class="st24 st25 st26">OFF</text>
    <text transform="matrix(1 0 0 1 746.2646 655.8438)" class="st24 st25 st26">MED</text>
    <text transform="matrix(1 0 0 1 775.9326 683.4385)" class="st24 st25 st26">HI</text>
    <path class="st27" d="M738,687.7l18.5-18.5c1.5-1.5,3.8-1.5,5.4,0l1.8,1.8c1.5,1.5,1.5,3.8,0,5.4l-21.6,18.7c-1.5,1.5-3.8,1.5-5.4,0
	l-1.8-1.8C733.4,691.9,736.5,689.2,738,687.7z" />
    <circle id="revmeter" class="st28" cx="237.2" cy="387.3" r="50.8" />
    <circle class="st29" cx="237.2" cy="387.3" r="48.5" />
    <circle class="st30" cx="237.2" cy="387.3" r="42.1" />
    <circle class="st31" cx="237.2" cy="387.3" r="5.1" />
    <path class="st32" d="M237.2,348.7L237.2,348.7c0.8,0,1.4,0.6,1.4,1.4l0,0v5.8c0,0.8-0.6,1.4-1.4,1.4l0,0l0,0
	c-0.8,0-1.4-0.6-1.4-1.4l0,0v-5.8C235.8,349.3,236.4,348.7,237.2,348.7L237.2,348.7L237.2,348.7z" />
    <path class="st32" d="M225.2,350.5L225.2,350.5c0.7-0.2,1.5,0.2,1.8,0.9l0,0l1.8,5.5c0.2,0.7-0.2,1.5-0.9,1.8l0,0
	c-0.7,0.2-1.5-0.2-1.8-0.9l0,0l-1.8-5.5C224,351.6,224.4,350.8,225.2,350.5L225.2,350.5z" />
    <path class="st32" d="M214.5,356L214.5,356c0.6-0.5,1.5-0.3,2,0.3l3.4,4.7c0.5,0.6,0.3,1.5-0.3,2l0,0c-0.6,0.5-1.5,0.3-2-0.3
	l-3.4-4.7C213.7,357.4,213.8,356.4,214.5,356z" />
    <path class="st32" d="M205.9,364.5L205.9,364.5c0.5-0.6,1.3-0.8,2-0.3l4.7,3.4c0.6,0.5,0.8,1.3,0.3,2l0,0c-0.5,0.6-1.3,0.8-2,0.3
	l-4.7-3.4C205.6,366.1,205.4,365.2,205.9,364.5z" />
    <path class="st32" d="M200.4,375.4L200.4,375.4c0.2-0.7,1-1.1,1.8-0.9l5.5,1.8c0.7,0.2,1.2,1,0.9,1.8l0,0c-0.2,0.7-1,1.1-1.8,0.9
	l-5.5-1.8C200.5,376.9,200.1,376.1,200.4,375.4z" />
    <path class="st32" d="M198.5,387.3L198.5,387.3c0-0.8,0.6-1.4,1.4-1.4l0,0h5.8c0.8,0,1.4,0.6,1.4,1.4l0,0l0,0c0,0.8-0.6,1.4-1.4,1.4
	l0,0h-5.8C199.1,388.7,198.5,388.1,198.5,387.3L198.5,387.3L198.5,387.3z" />
    <path class="st32" d="M200.4,399.2L200.4,399.2c-0.2-0.7,0.2-1.5,0.9-1.8l0,0l5.5-1.8c0.7-0.2,1.5,0.2,1.8,0.9l0,0
	c0.2,0.7-0.2,1.5-0.9,1.8l0,0l-5.5,1.8C201.5,400.3,200.7,399.9,200.4,399.2z" />
    <path class="st32" d="M265.7,396.5L265.7,396.5c0.2-0.7,1-1.1,1.8-0.9l5.5,1.8c0.7,0.2,1.2,1,0.9,1.8l0,0c-0.2,0.7-1,1.1-1.8,0.9
	l-5.5-1.8C265.9,398.1,265.5,397.3,265.7,396.5z" />
    <path class="st32" d="M275.8,387.3L275.8,387.3c0,0.8-0.6,1.4-1.4,1.4l0,0h-5.8c-0.8,0-1.4-0.6-1.4-1.4l0,0l0,0
	c0-0.8,0.6-1.4,1.4-1.4l0,0h5.8C275.2,385.9,275.8,386.5,275.8,387.3L275.8,387.3z" />
    <path class="st32" d="M266.6,376.2l5.5-1.8c0.7-0.2,1.5,0.2,1.8,0.9l0,0c0.2,0.7-0.2,1.5-0.9,1.8l0,0l-5.5,1.8
	c-0.7,0.2-1.5-0.2-1.8-0.9l0,0C265.5,377.3,265.9,376.5,266.6,376.2L266.6,376.2L266.6,376.2z" />
    <path class="st32" d="M268.6,365.8L268.6,365.8c0.5,0.6,0.3,1.5-0.3,2l0,0l0,0l-4.7,3.4c-0.6,0.5-1.5,0.3-2-0.3l0,0l0,0
	c-0.5-0.6-0.3-1.5,0.3-2l0,0l0,0l4.7-3.4C267.2,365,268.1,365.1,268.6,365.8C268.6,365.7,268.6,365.8,268.6,365.8L268.6,365.8z" />
    <path class="st32" d="M254.5,361l3.4-4.7c0.5-0.6,1.3-0.8,2-0.3l0,0c0.6,0.5,0.8,1.3,0.3,2l-3.4,4.7c-0.5,0.6-1.3,0.8-2,0.3l0,0
	C254.2,362.5,254.1,361.6,254.5,361z" />
    <path class="st32" d="M245.6,356.9l1.8-5.5c0.2-0.7,1-1.2,1.8-0.9l0,0c0.7,0.2,1.1,1,0.9,1.8l-1.8,5.5c-0.2,0.7-1,1.2-1.8,0.9l0,0
	C245.7,358.5,245.3,357.7,245.6,356.9z" />
    <path id="left_needle" class="st33" d="M247.1,394c0.9,0.9,0.9,2.3,0,3.1l0,0c-0.9,0.9-2.3,0.9-3.1,0l0,0l-25.7-28.8L247.1,394z" />
    <circle class="st30" cx="237.2" cy="387.3" r="2.9" />
    <rect x="221.8" y="406" class="st34" width="30.9" height="11.9" />
    <line class="st34" x1="229.4" y1="406" x2="229.4" y2="417.9" />
    <line class="st34" x1="237" y1="406" x2="237" y2="417.9" />
    <line class="st34" x1="244.7" y1="406" x2="244.7" y2="417.9" />
    <circle class="st28" cx="352.7" cy="387.3" r="50.8" />
    <circle class="st29" cx="352.7" cy="387.3" r="48.5" />
    <circle class="st30" cx="352.7" cy="387.3" r="42.1" />
    <circle class="st31" cx="352.7" cy="387.3" r="5.1" />
    <path class="st32" d="M352.7,348.7L352.7,348.7c0.8,0,1.4,0.6,1.4,1.4l0,0v5.8c0,0.8-0.6,1.4-1.4,1.4l0,0l0,0
	c-0.8,0-1.4-0.6-1.4-1.4l0,0v-5.8C351.3,349.3,351.9,348.7,352.7,348.7L352.7,348.7L352.7,348.7z" />
    <path class="st32" d="M340.7,350.5L340.7,350.5c0.7-0.2,1.5,0.2,1.8,0.9l0,0l1.8,5.5c0.2,0.7-0.2,1.5-0.9,1.8l0,0
	c-0.7,0.2-1.5-0.2-1.8-0.9l0,0l-1.8-5.5C339.5,351.6,339.9,350.8,340.7,350.5L340.7,350.5z" />
    <path class="st32" d="M331.2,355.7L331.2,355.7c0.6-0.5,1.5-0.3,2,0.3l0,0l0,0l3.4,4.7c0.5,0.6,0.3,1.5-0.3,2l0,0l0,0
	c-0.6,0.5-1.5,0.3-2-0.3l0,0l0,0l-3.4-4.7C330.4,357,330.6,356.1,331.2,355.7L331.2,355.7L331.2,355.7L331.2,355.7z" />
    <path class="st32" d="M321.4,364.5L321.4,364.5c0.5-0.6,1.3-0.8,2-0.3l0,0l4.7,3.4c0.6,0.5,0.8,1.3,0.3,2l0,0l0,0
	c-0.5,0.6-1.3,0.8-2,0.3l0,0l-4.7-3.4C321.1,366.1,320.9,365.1,321.4,364.5L321.4,364.5L321.4,364.5L321.4,364.5z" />
    <path class="st32" d="M315.9,375.4L315.9,375.4c0.2-0.7,1-1.1,1.8-0.9l5.5,1.8c0.7,0.2,1.2,1,0.9,1.8l0,0c-0.2,0.7-1,1.1-1.8,0.9
	l-5.5-1.8C316.1,376.9,315.7,376.1,315.9,375.4z" />
    <path class="st32" d="M315.5,385.9h5.8c0.8,0,1.4,0.6,1.4,1.4l0,0l0,0c0,0.8-0.6,1.4-1.4,1.4l0,0h-5.8c-0.8,0-1.4-0.6-1.4-1.4l0,0
	l0,0C314,386.5,314.7,385.9,315.5,385.9L315.5,385.9L315.5,385.9z" />
    <path class="st32" d="M316.9,397.4l5.5-1.8c0.7-0.2,1.5,0.2,1.8,0.9l0,0c0.2,0.7-0.2,1.5-0.9,1.8l0,0l-5.5,1.8
	c-0.7,0.2-1.5-0.2-1.8-0.9l0,0C315.8,398.4,316.2,397.6,316.9,397.4L316.9,397.4L316.9,397.4z" />
    <path class="st32" d="M381.2,396.5L381.2,396.5c0.2-0.7,1-1.1,1.8-0.9l5.5,1.8c0.7,0.2,1.2,1,0.9,1.8l0,0c-0.2,0.7-1,1.1-1.8,0.9
	l-5.5-1.8C381.4,398.1,381,397.3,381.2,396.5z" />
    <path class="st32" d="M391.3,387.3L391.3,387.3c0,0.8-0.6,1.4-1.4,1.4h-5.8c-0.8,0-1.4-0.6-1.4-1.4l0,0l0,0c0-0.8,0.6-1.4,1.4-1.4
	l0,0h5.8C390.6,385.8,391.3,386.5,391.3,387.3C391.3,387.2,391.3,387.2,391.3,387.3C391.3,387.2,391.3,387.3,391.3,387.3z" />
    <path class="st32" d="M389.4,375.4L389.4,375.4c0.2,0.7-0.2,1.5-0.9,1.8l0,0L383,379c-0.7,0.2-1.5-0.2-1.8-0.9l0,0
	c-0.2-0.7,0.2-1.5,0.9-1.8l0,0l5.5-1.8C388.4,374.1,389.2,374.5,389.4,375.4z" />
    <path class="st32" d="M383.9,364.5L383.9,364.5c0.5,0.6,0.3,1.5-0.3,2l0,0l0,0L379,370c-0.6,0.5-1.5,0.3-2-0.3l0,0l0,0
	c-0.5-0.6-0.3-1.5,0.3-2l0,0l0,0l4.7-3.4C382.5,363.7,383.4,363.9,383.9,364.5L383.9,364.5L383.9,364.5L383.9,364.5z" />
    <path class="st32" d="M370,361l3.4-4.7c0.5-0.6,1.3-0.8,2-0.3l0,0c0.6,0.5,0.8,1.3,0.3,2l-3.4,4.7c-0.5,0.6-1.3,0.8-2,0.3l0,0
	C369.7,362.5,369.5,361.6,370,361z" />
    <path class="st32" d="M361,356.9l1.8-5.5c0.2-0.7,1-1.2,1.8-0.9l0,0c0.7,0.2,1.1,1,0.9,1.8l-1.8,5.5c-0.2,0.7-1,1.2-1.8,0.9l0,0
	C361.2,358.5,360.8,357.7,361,356.9z" />
    <path id="right_needle" class="st33" d="M362.6,394c0.9,0.9,0.9,2.3,0,3.1l0,0c-0.9,0.9-2.3,0.9-3.1,0l0,0l-25.7-28.8L362.6,394z" />
    <circle id="speedometer" class="st30" cx="352.7" cy="387.3" r="2.9" />
    <rect x="337.3" y="406" class="st34" width="30.9" height="11.9" />
    <line class="st34" x1="344.9" y1="406" x2="344.9" y2="417.9" />
    <line class="st34" x1="352.5" y1="406" x2="352.5" y2="417.9" />
    <line class="st34" x1="360.1" y1="406" x2="360.1" y2="417.9" />
    <path class="st35" d="M466.3,463c35.7,92-13.1,195.8-105.1,231.5s-192.5-10.2-228.3-102.3c-16.1-41.6-16.1-87.6,0-129.2" />
    <path class="st36" d="M294.7,288.1c-98.3,0-178.1,79.7-178.1,178s79.8,178.1,178.1,178.1s178-79.7,178-178.1l0,0
	C472.8,367.8,393,288.1,294.7,288.1z M189,382.4c4.6-7.8,7.7-16.2,9.5-25.1c0.8-4.1,3-7.9,6.4-10.4c53-40,126.1-40.1,179.3-0.3
	c3.3,2.5,5.7,6.3,6.5,10.5c1.7,8.9,5,17.5,9.5,25.3c7.7,13.3,18.3,23.4,29.5,29.3c3.4,1.8,6,4.9,7.2,8.5c0.7,2.3,1.4,4.7,2,7
	c1.4,5.2-1.6,10.4-6.8,11.8c-1.2,0.3-2.5,0.4-3.8,0.3c-43.8-6.1-88.9-6.6-135.1-6.6c-45,0-89.1,0.4-131.8,6.2
	c-5.3,0.7-10.1-3-10.8-8.3c-0.2-1.3-0.1-2.5,0.3-3.7c0.6-2.2,1.3-4.5,2-6.7c1.2-3.6,3.7-6.7,7.2-8.5
	C171,405.6,181.4,395.6,189,382.4z M160.2,500.4c43.1,28.8,79.1,63,106.3,100.3c2.2,2.9,1.5,7.2-1.4,9.4c-1.6,1.2-3.6,1.6-5.6,1.1
	c-52.3-12.7-93.7-52.5-108.4-104.3c-0.9-3.1,0.9-6.5,4.1-7.4C157,499.1,158.8,499.4,160.2,500.4L160.2,500.4z M321.2,601.1
	c27.6-37.9,64.4-72.7,108.3-102c2.7-1.8,6.5-1.1,8.3,1.6c0.9,1.4,1.2,3.2,0.8,4.9c-14.6,52.9-57.1,93.6-110.5,105.9
	c-3.6,0.8-7.2-1.4-8-5.1C319.7,604.7,320.1,602.6,321.2,601.1L321.2,601.1z" />
    <path class="st36" d="M217.6,449.5c3.7-4.9,9.5-7.7,15.7-7.7h121.1c5.6,0,10.9,2.3,14.7,6.6l10.8,12c6.5,7.2,6.9,18,0.9,25.6
	l-59.4,75.2c-3.7,4.8-9.5,7.6-15.6,7.6h-17.7c-5.7,0-11-2.4-14.9-6.7l-65.3-73.8c-6.3-7.2-6.7-17.8-0.8-25.3L217.6,449.5z" />
    <path class="st37" d="M207.2,467.7l10.3-13.4c3.7-4.9,9.5-7.7,15.7-7.7h121.2c5.6,0,10.9,2.3,14.7,6.6l10.8,12
	c3.2,3.5,4.9,4.9,5.1,9.4c0.3-5.3-1.5-10.3-5.1-14.3l-10.8-12c-3.7-4.1-9.1-6.6-14.7-6.6H233.2c-6.1,0-11.9,2.8-15.7,7.7l-10.3,13.4
	c-2.9,3.7-4.3,8.4-4.1,13C203.3,471.9,204.7,471,207.2,467.7z" />
    <path class="st38" d="M380.8,480.1l-59.4,75.2c-3.7,4.8-9.5,7.5-15.6,7.5h-17.7c-5.7,0-11-2.4-14.9-6.7l-65.3-73.8
	c-3.1-3.5-4.8-3.7-5-8.2c-0.2,5.2,1.5,10.2,5,14.1l65.3,73.8c3.7,4.2,9.2,6.7,14.9,6.7h17.7c6.1,0,11.8-2.7,15.6-7.5l59.4-75.3
	c2.9-3.7,4.5-8.4,4.2-13.1C384.9,476.8,383.4,476.7,380.8,480.1z" />
    <path class="st39" d="M188.9,383.2l0.5-0.8c4.6-7.8,7.7-16.3,9.4-25.1c0.8-4.1,3-7.9,6.4-10.4c53-40,126.1-40.1,179.3-0.3
	c3.3,2.5,5.7,6.3,6.5,10.5c1.6,8.5,4.7,16.7,8.9,24.3l54.5,5.1c-44-88-151-123.6-239-79.6c-35.1,17.6-63.5,46.3-80.6,81.6
	L188.9,383.2z" />
    <path class="st39" d="M428.1,532.8c-36.9,73.7-126.5,103.6-200.3,66.8c-28.8-14.5-52.3-37.8-66.8-66.8h-31.4
	c0.3,0.9,0.7,1.7,1.1,2.6c38.2,90.4,142.6,132.7,233.1,94.5c42.6-18,76.5-51.9,94.5-94.5c0.4-0.8,0.7-1.7,1-2.5L428.1,532.8
	L428.1,532.8z" />
    <circle class="st40" cx="294.7" cy="487.6" r="33.6" />
    <circle class="st41" cx="294.7" cy="487.6" r="30.8" />
    <path class="st42" d="M319.2,469c10.2,13.6,7.6,32.8-6,43.1c-11.3,8.6-27,8.3-38-0.7" />
    <path class="st38" d="M320.6,602c0,0,23.3-69.6,108.9-102.9C429.6,499.2,365.4,539.3,320.6,602z" />
    <path class="st38" d="M267.7,602c0,0-23.3-69.6-108.9-102.9C158.8,499.2,222.9,539.3,267.7,602z" />
    <path class="st37" d="M160.1,439.4c0,0,38-7.9,138.5-6.7c0,0,76.4-1,129.6,6.6c0,0-68.1-3.7-129.6-3.5
	C298.7,435.7,200.9,437.2,160.1,439.4z" />
    <path class="st37" d="M161.3,442.9c42.7-5.8,86.8-6.2,131.8-6.2c46.2,0,91.3,0.5,135.1,6.6c6.8,0.9,12.3-1.3,10.5-8
	c-0.2-0.6-0.3-1.1-0.5-1.7c-1.7,3.9-5.9,6.3-10.1,5.7c-43.8-6.1-88.9-6.6-135.1-6.6c-45,0-89.1,0.4-131.8,6.2
	c-4.2,0.6-8.4-1.7-10-5.7c-0.2,0.5-0.3,1.1-0.5,1.7C149,441.5,154.4,443.8,161.3,442.9z" />
    <path class="st37" d="M294.7,296.2c96.8,0,175.8,77.3,178,174c0-1.3,0-2.7,0-4c0-98.3-79.7-178.1-178.1-178.1
	s-178.1,79.7-178.1,178.1c0,1.3,0,2.7,0,4C118.8,373.3,197.9,296.1,294.7,296.2z" />
    <path class="st37" d="M259.5,611.1c-51.2-12.4-92-50.9-107.5-101.3c-1.1,1.4-1.4,3.3-0.9,5.1c14.8,51.8,56.1,91.5,108.4,104.3
	c3.6,0.9,7.2-1.3,8.1-5c0.5-1.9,0.1-3.9-1.1-5.6l-0.1-0.1C264.9,610.8,262.2,611.9,259.5,611.1z" />
    <path class="st37" d="M328.2,619.7c53.4-12.3,95.9-53,110.5-105.9c0.5-1.7,0.2-3.6-0.9-5.1c-15.4,51.5-57.3,90.7-109.5,102.8
	c-2.5,0.6-5.3-0.3-6.9-2.5l-0.1,0.1c-2.2,3-1.5,7.2,1.5,9.4C324.3,619.7,326.3,620.1,328.2,619.7z" />
</svg>
