
<svg id="Layer_1" data-name="Layer 1" xmlns="http://www.w3.org/2000/svg" viewBox="0 0 96.86 139.9">
    <title>microphone off</title>
    <path fill="#838E8E" d="M48.43,97.95a28,28,0,0,0,28-28v-32a28,28,0,1,0-56,0v32A28,28,0,0,0,48.43,97.95Zm-12-36h-12v-4h12a4,4,0,0,0,0-8h-12v-4h12a4,4,0,0,0,0-8h-12a24,24,0,0,1,48,0h-12a4,4,0,0,0,0,8h12v4h-12a4,4,0,0,0,0,8h12v4h-12a4,4,0,0,0,0,8h12a24,24,0,0,1-48,0h12A4,4,0,0,0,36.43,61.95Z"/>
    <path fill="#838E8E" d="M86.43,69.95h-4a34,34,0,0,1-68,0h-4a38,38,0,0,0,36,37.95v18.05h-14v4h32v-4h-14V107.9A38,38,0,0,0,86.43,69.95Z"/>
</svg>

