<svg  xmlns="http://www.w3.org/2000/svg" viewBox="0 0 1317.64 976.26">
    <defs>
        <style>
            .musicClassicalCls-1 {
                fill: #4ac1dd;
            }

            .musicClassicalCls-2 {
                fill: #fff;
            }

            .musicClassicalCls-3 {
                font-size: 55px;
            }

            .musicClassicalCls-3,
            .musicClassicalCls-5 {
                fill: #21535b;
                font-family: "HelvNeue Roman for IBM";
            }

            .musicClassicalCls-4 {
                font-size: 113px;
            }

            .musicClassicalCls-5 {
                fill: none;
                stroke: #fff;
                stroke-miterlimit: 10;
                stroke-width: 3px;
            }
        </style>
    </defs>
    <title>music classical</title>
    <rect class="musicClassicalCls-1" x="11.47" y="12" width="1296.16" height="951.7" rx="33.69" ry="33.69" />
    <rect class="musicClassicalCls-2" x="106.06" y="113.22" width="468.05" height="468.05" rx="42.56" ry="42.56" />
    <text class="musicClassicalCls-3" transform="translate(648.58 271.55)">Now Playing</text>
    <text class="musicClassicalCls-4" transform="translate(648.58 422.94)">CLASSICAL</text>
    <polyline class="musicClassicalCls-2" points="192.04 886.13 143.81 837.9 192.04 789.68" />
    <polyline class="musicClassicalCls-2" points="241.08 886.13 192.85 837.9 241.08 789.68" />
    <polyline class="musicClassicalCls-2" points="1134.59 789.68 1182.82 837.9 1134.59 886.13" />
    <polyline class="musicClassicalCls-2" points="1085.55 789.68 1133.78 837.9 1085.55 886.13" />
    <rect class="musicClassicalCls-2" x="623.05" y="789.68" width="17.86" height="89.64" />
    <rect class="musicClassicalCls-2" x="657.39" y="789.68" width="17.86" height="89.64" />
    <line class="musicClassicalCls-5" x1="133.59" y1="716.5" x2="1197.06" y2="716.5" />
    <circle id="seek" class="musicClassicalCls-2" cx="150" cy="718.62" r="17.17" />
    <path class="musicClassicalCls-1" d="M392.89,465.57c1.14-1.47,27.75-36.43,17.77-68.48-5.41-17.35-19.78-29.86-42.74-37.18l-.9-.29-.93-.14a95.09,95.09,0,0,0-12.68-.92l-9.72-64.42c28.23-31.63,42-62.75,40.84-92.68-1.37-36.49-24.8-57.06-25.79-57.92l-5.79-5L346,141.79c-50.87,23.74-31.6,122.42-28.8,135.47l1.37,9.11L317.05,288c-11.79,7.42-87,58.68-63.09,144l.15.48c.49,1.49,12.33,36.62,46.66,49.95,14.49,5.63,30.49,6.49,47.84,2.62l2.47,16.39a34.85,34.85,0,0,1-2.86,20.42q-.46,1-1,1.83a2,2,0,0,1-3.6-.46,24,24,0,1,0-30.09,30.07,45.68,45.68,0,0,0,18.88,4.15,38.4,38.4,0,0,0,16.91-3.82c13.33-6.47,27.74-22.35,27-43.15l-.05-.1-5-32.81C376,476.21,386.61,473.91,392.89,465.57ZM349.1,168.16a62.18,62.18,0,0,1,11.82,34.18c.71,19.07-6.77,39.37-22.3,60.62C334.28,236.29,330.85,186.67,349.1,168.16Zm-39.58,292.3c-22.87-8.76-32.1-33-32.89-35.18C259.94,365.1,304,326,322.58,312.66l7.35,48.7c-9.16,2.52-18.19,7.14-24.6,15.34-10.77,13.79-11,33.35-.67,58.13a12.18,12.18,0,1,0,21.62-9.6c-4.58-11.15-8.6-25.89-2.33-34,2.23-2.87,5.64-4.88,9.55-6.26l11.56,76.59C331.79,464.81,319.9,464.44,309.52,460.46Zm67.76-13.81a11.68,11.68,0,0,1-4.41,4q-2.6,1.36-5.15,2.59L357,382.35c1.81.09,3.41.23,4.68.39,14.58,4.84,23.46,12,26.39,21.34C392.54,418.29,383.57,436.81,377.28,446.65Z"/>
</svg>
