<svg id="Layer_1" data-name="Layer 1" xmlns="http://www.w3.org/2000/svg" viewBox="0 0 244.9 410.81">
    <defs>
        <style>
            .cls-1{
                fill:#e22929;
            }
            .cls-2{
                fill:#fff;
            }
        </style>
    </defs>
    <title>pin gas</title>
    <path class="cls-1" d="M122.25,13.51h0c70.9,0,123.23,66.15,106.92,135.15L122.25,398.72,15.33,148.65C-1,79.66,51.35,13.51,122.25,13.51Z"/>
    <circle class="cls-2" cx="122.25" cy="121.62" r="87.46"/>
    <path class="cls-1" d="M183.82,134.17L181,122.86a11.88,11.88,0,0,0-11.55-9h-3.35v-8.71h0.73V94.4l-9.29-9.29V72.27a11.83,11.83,0,0,0-11.83-11.83H96.4A11.83,11.83,0,0,0,84.57,72.27v84H80.93v13.09h80.25V156.32h-3.63V116h6.38V136.6A10.09,10.09,0,1,0,183.82,134.17ZM92,75.11a7.76,7.76,0,0,1,7.76-7.76h42.58a7.76,7.76,0,0,1,7.76,7.76V107.3H92V75.11Zm65.54,38.72V91l4.39,4.18v9.9h2v8.71h-6.38Zm22.71,27.65a7.91,7.91,0,0,1-14.15-4.87V116h3.35a9.71,9.71,0,0,1,9.44,7.38l2.81,11.31A7.87,7.87,0,0,1,180.26,141.48Z"/>
</svg>