<svg id="Layer_1" data-name="Layer 1" xmlns="http://www.w3.org/2000/svg" viewBox="0 0 242 407.91">
    <defs>
        <style>
            .cls-1{
                fill:#e22929;
            }
            .cls-2{
                fill:#fff;
            }
        </style>
    </defs>
    <title>pin food</title>
    <path class="cls-1" d="M120.8,11.85h0C191.7,11.85,244,78,227.72,147L120.8,397.06,13.88,147C-2.43,78,49.9,11.85,120.8,11.85Z"/>
    <circle class="cls-2" cx="120.8" cy="119.96" r="87.46"/>
    <path class="cls-1" d="M144.84,55.79a10,10,0,0,0-10,10v75.7h5.71v34.28a7.14,7.14,0,1,0,14.28,0v-110A10,10,0,0,0,144.84,55.79Z"/>
    <path class="cls-1" d="M111.75,55.59a3.1,3.1,0,0,0-3.1,3.1V88h-3.79V58.69a3.1,3.1,0,1,0-6.2,0V88H94.85V58.69a3.1,3.1,0,1,0-6.2,0V88H84.87V58.69a3.1,3.1,0,1,0-6.2,0V96.09h0a11,11,0,0,0,8.07,10.23v68a10,10,0,0,0,20,0v-68a11,11,0,0,0,8.07-10.23h0V58.69A3.1,3.1,0,0,0,111.75,55.59Z"/>
</svg>